<?xml version="1.0" encoding="utf-8"?>
<!-- Generator: Adobe Illustrator 25.1.0, SVG Export Plug-In . SVG Version: 6.00 Build 0)  -->
<svg version="1.1" id="Layer_1" xmlns="http://www.w3.org/2000/svg" xmlns:xlink="http://www.w3.org/1999/xlink" x="0px" y="0px"
	 viewBox="0 0 512 512" style="enable-background:new 0 0 512 512;" xml:space="preserve">
<style type="text/css">
	.st0{fill:#3AFF7A;}
</style>
<path class="st0" d="M256,192c0-11.8,9.6-21.3,21.3-21.3s21.3,9.6,21.3,21.3c0,11.8-9.6,21.3-21.3,21.3S256,203.8,256,192z
	 M490.7,106.7v298.7C490.6,464.2,442.9,511.9,384,512H170.7c-42.4-0.1-80.7-25.2-97.6-64H42.7c-11.8,0-21.3-9.6-21.3-21.3
	c0-11.8,9.6-21.3,21.3-21.3H64v-42.7H42.7c-11.8,0-21.3-9.6-21.3-21.3c0-11.8,9.6-21.3,21.3-21.3H64v-42.7H42.7
	c-11.8,0-21.3-9.6-21.3-21.3c0-11.8,9.6-21.3,21.3-21.3H64V192H42.7c-11.8,0-21.3-9.6-21.3-21.3c0-11.8,9.6-21.3,21.3-21.3H64v-42.7
	H42.7c-11.8,0-21.3-9.6-21.3-21.3S30.9,64,42.7,64H73C90,25.2,128.3,0.1,170.7,0H384C442.9,0.1,490.6,47.8,490.7,106.7z M213.3,192
	c0,35.3,28.7,64,64,64s64-28.7,64-64s-28.7-64-64-64S213.3,156.7,213.3,192z M384,384c-4.5-141-208.9-140.9-213.3,0
	c0,11.8,9.6,21.3,21.3,21.3c11.8,0,21.3-9.6,21.3-21.3c0-35.3,28.7-64,64-64s64,28.7,64,64c0,11.8,9.6,21.3,21.3,21.3
	C374.4,405.3,384,395.8,384,384z"/>
</svg>
